<?xml version="1.0" encoding="UTF-8" standalone="no"?>
<!DOCTYPE svg PUBLIC "-//W3C//DTD SVG 1.1//EN" "http://www.w3.org/Graphics/SVG/1.1/DTD/svg11.dtd">
<svg width="100%" height="100%" viewBox="0 0 152 32" version="1.1" xmlns="http://www.w3.org/2000/svg" xmlns:xlink="http://www.w3.org/1999/xlink" xml:space="preserve" xmlns:serif="http://www.serif.com/" style="fill-rule:evenodd;clip-rule:evenodd;stroke-linejoin:round;stroke-miterlimit:2;">
    <g transform="matrix(0.0257028,0,0,0.0257028,-21.7093,-45.6731)">
        <g>
            <g transform="matrix(1,0,0,1,3422.84,2783.36)">
                <g transform="matrix(1095,0,0,1095,3345.95,0)">
                </g>
                <text x="0px" y="0px" style="font-family:'Helvetica-Bold', 'Helvetica';font-weight:700;font-size:1095px;fill:white;">Finder</text>
            </g>
            <g transform="matrix(1,0,0,1,771.663,2784.43)">
                <text x="0px" y="0px" style="font-family:'Helvetica-Bold', 'Helvetica';font-weight:700;font-size:1095px;fill:white;">Ma</text>
            </g>
            <g transform="matrix(1,0,0,1,-1010.57,-0.000175701)">
                <rect x="3520.82" y="2025.97" width="249" height="249" style="fill:rgb(0,145,147);"/>
                <rect x="3769.82" y="2274.97" width="249" height="249" style="fill:rgb(0,145,147);"/>
                <rect x="4018.82" y="2025.97" width="249" height="249" style="fill:rgb(0,145,147);"/>
                <rect x="4018.82" y="2523.97" width="249" height="249" style="fill:white;"/>
                <rect x="3520.82" y="2523.97" width="249" height="249" style="fill:rgb(0,145,147);"/>
                <path d="M3271.82,1833C3271.82,1802.05 3296.9,1776.97 3327.85,1776.97L3464.8,1776.97C3495.74,1776.97 3520.82,1802.05 3520.82,1833L3520.82,2025.97L3327.85,2025.97C3296.9,2025.97 3271.82,2000.89 3271.82,1969.95L3271.82,1833Z" style="fill:white;"/>
                <path d="M4460.79,1776.97C4491.74,1776.97 4516.82,1802.05 4516.82,1833L4516.82,1969.95C4516.82,2000.89 4491.74,2025.97 4460.79,2025.97L4267.82,2025.97L4267.82,1833C4267.82,1802.05 4292.91,1776.97 4323.84,1776.97L4460.79,1776.97Z" style="fill:white;"/>
                <path d="M3327.85,3021.97C3296.9,3021.97 3271.82,2996.89 3271.82,2965.95L3271.82,2829C3271.82,2798.06 3296.9,2772.97 3327.85,2772.97L3520.82,2772.97L3520.82,2965.95C3520.82,2996.89 3495.74,3021.97 3464.8,3021.97L3327.85,3021.97Z" style="fill:white;"/>
                <path d="M4516.82,2965.95C4516.82,2996.89 4491.74,3021.97 4460.79,3021.97L4323.84,3021.97C4292.91,3021.97 4267.82,2996.89 4267.82,2965.95L4267.82,2772.97L4460.79,2772.97C4491.74,2772.97 4516.82,2798.06 4516.82,2829L4516.82,2965.95Z" style="fill:white;"/>
            </g>
        </g>
    </g>
</svg>
