<svg width="19" height="22" xmlns="http://www.w3.org/2000/svg" xmlns:xlink="http://www.w3.org/1999/xlink" xml:space="preserve" overflow="hidden"><defs><clipPath id="clip0"><rect x="690" y="403" width="17" height="21"/></clipPath><clipPath id="clip1"><rect x="690" y="403" width="17" height="21"/></clipPath><clipPath id="clip2"><rect x="690" y="403" width="17" height="21"/></clipPath><linearGradient x1="2117.43" y1="1209.32" x2="2099.02" y2="1201.74" gradientUnits="userSpaceOnUse" spreadMethod="pad" id="fill3"><stop offset="0" stop-color="#41D1FF" stop-opacity="0.16"/><stop offset="0.5" stop-color="#7F82FE" stop-opacity="1"/><stop offset="1" stop-color="#BD34FE" stop-opacity="1"/></linearGradient></defs><g transform="translate(-689 -402)"><g><g clip-path="url(#clip0)"><g clip-path="url(#clip1)"><g clip-path="url(#clip2)"><path d="M2105.08 1214.49 2105.07 1198.65C2105.07 1198.32 2105.36 1198.2 2105.59 1198.43L2116.7 1209.79C2116.94 1210.04 2116.91 1210.49 2116.63 1210.53L2110.59 1211.39C2110.55 1211.39 2110.51 1211.41 2110.47 1211.43L2105.65 1214.97C2105.42 1215.13 2105.08 1214.84 2105.08 1214.49Z" fill="url(#fill3)" fill-rule="evenodd" transform="matrix(1 0 0 1.0107 -1410.35 -804.011)"/><path d="M1.24427 0 1.8664 0 1.8664 3.11067 1.24427 3.11067Z" fill="#7AAFFE" fill-rule="evenodd" fill-opacity="1" transform="matrix(1.34124 -0.718682 0.464543 0.885594 690.774 404.346)"/><path d="M1.2352 0 1.85281 0 1.85281 3.08801 1.2352 3.08801Z" fill="#7AAFFE" fill-rule="evenodd" fill-opacity="1" transform="matrix(0.465314 -1.47228 0.951653 0.307238 689.424 408.918)"/><path d="M1.24458 0 1.86687 0 1.86687 3.11145 1.24458 3.11145Z" fill="#7AAFFE" fill-rule="evenodd" fill-opacity="1" transform="matrix(1.36101 0.678782 -0.438752 0.898648 695.714 402.15)"/></g></g></g></g></g></svg>