<svg width="17" height="20" xmlns="http://www.w3.org/2000/svg" xmlns:xlink="http://www.w3.org/1999/xlink" xml:space="preserve" overflow="hidden"><defs><clipPath id="clip0"><rect x="690" y="403" width="16" height="19"/></clipPath><clipPath id="clip1"><rect x="690" y="403" width="16" height="19"/></clipPath><clipPath id="clip2"><rect x="690" y="403" width="16" height="19"/></clipPath><linearGradient x1="1936.26" y1="1105.85" x2="1919.42" y2="1098.92" gradientUnits="userSpaceOnUse" spreadMethod="pad" id="fill3"><stop offset="0" stop-color="#41D1FF" stop-opacity="0.16"/><stop offset="0.5" stop-color="#7F82FE" stop-opacity="1"/><stop offset="1" stop-color="#BD34FE" stop-opacity="1"/></linearGradient></defs><g transform="translate(-689 -402)"><g><g clip-path="url(#clip0)"><g clip-path="url(#clip1)"><g clip-path="url(#clip2)"><path d="M1924.97 1110.58 1924.96 1096.09C1924.96 1095.79 1925.23 1095.68 1925.43 1095.89L1935.59 1106.28C1935.81 1106.51 1935.78 1106.92 1935.53 1106.96L1930 1107.74C1929.97 1107.74 1929.93 1107.76 1929.9 1107.78L1925.49 1111.02C1925.28 1111.16 1924.97 1110.9 1924.97 1110.58Z" fill="url(#fill3)" fill-rule="evenodd" transform="matrix(1.02924 0 0 1 -1286.8 -689.058)"/><path d="M1.13542 0 1.70312 0 1.70312 2.83854 1.13542 2.83854Z" fill="#7AAFFE" fill-rule="evenodd" fill-opacity="1" transform="matrix(1.38336 -0.712573 0.479132 0.878067 690.729 404.218)"/><path d="M1.15823 0 1.73735 0 1.73735 2.89559 1.15823 2.89559Z" fill="#7AAFFE" fill-rule="evenodd" fill-opacity="1" transform="matrix(0.467046 -1.42058 0.955194 0.296451 689.458 408.355)"/><path d="M1.13466 0 1.70199 0 1.70199 2.83665 1.13466 2.83665Z" fill="#7AAFFE" fill-rule="evenodd" fill-opacity="1" transform="matrix(1.40504 0.673632 -0.452948 0.89183 695.378 402.231)"/></g></g></g></g></g></svg>